<?xml version="1.0" encoding="UTF-8"?>
<!DOCTYPE svg PUBLIC "-//W3C//DTD SVG 1.1//EN" "http://www.w3.org/Graphics/SVG/1.1/DTD/svg11.dtd">
<!-- Creator: CorelDRAW X7 -->
<svg xmlns="http://www.w3.org/2000/svg" xml:space="preserve" width="47.4621mm" height="21.0781mm" version="1.1" style="shape-rendering:geometricPrecision; text-rendering:geometricPrecision; image-rendering:optimizeQuality; fill-rule:evenodd; clip-rule:evenodd" viewBox="0 0 2101 933" xmlns:xlink="http://www.w3.org/1999/xlink">
 <defs>
  <style type="text/css">
   <![CDATA[
    .fil0 {fill:#C63441;fill-rule:nonzero}
    .fil1 {fill:#5A5A5A;fill-rule:nonzero}
   ]]>
  </style>
 </defs>
 <g id="Layer_x0020_1">
  <metadata id="CorelCorpID_0Corel-Layer"/>
  <path class="fil0" d="M227 192c74,33 131,78 170,135 40,56 60,127 60,213 0,57 -11,109 -34,156 -21,47 -52,88 -93,122 -39,34 -86,61 -143,80 -56,19 -117,28 -185,28l-2 -69c54,0 103,-8 150,-24 46,-15 86,-37 120,-64 34,-28 61,-62 81,-101 19,-39 29,-82 29,-128 0,-42 -8,-82 -25,-119 -15,-37 -37,-70 -65,-97 -26,-29 -58,-52 -95,-68 -36,-18 -76,-28 -118,-30l144 -142 -212 0 0 -77 402 0 -184 185z"/>
  <path class="fil1" d="M554 556c0,42 8,83 23,121 16,37 38,69 65,97 28,28 61,50 98,66 38,16 79,24 122,24 43,0 83,-8 120,-24 38,-16 71,-38 98,-66 27,-28 49,-60 64,-97 4,-8 7,-16 9,-23 14,25 31,48 50,70 -18,37 -42,70 -71,99 -33,34 -72,61 -119,81 -46,19 -97,29 -151,29 -54,0 -104,-10 -150,-29 -45,-21 -85,-48 -119,-82 -34,-34 -61,-74 -80,-119 -19,-46 -28,-95 -28,-147 0,-64 10,-125 31,-184 20,-58 49,-112 85,-160 37,-49 80,-91 131,-127 50,-37 106,-65 165,-85l28 65c-59,17 -107,41 -145,69 -38,29 -71,61 -97,96 20,-15 44,-27 72,-35 29,-10 65,-14 107,-14 53,0 103,9 148,29 46,20 87,46 121,80l9 10 -4 9c-10,23 -18,47 -23,72 -11,-14 -22,-28 -35,-41 -28,-28 -60,-50 -97,-65 -37,-16 -77,-25 -119,-25 -42,0 -82,9 -119,25 -37,15 -70,37 -98,65 -27,28 -50,60 -66,97 -16,37 -25,77 -25,119z"/>
  <path class="fil0" d="M1964 928c-51,0 -102,-16 -153,-48 -52,20 -107,30 -164,30 -63,0 -122,-12 -177,-36 -54,-23 -103,-56 -144,-97 -41,-41 -74,-89 -97,-144 -24,-55 -36,-115 -36,-177 0,-63 12,-122 36,-177 23,-55 56,-103 97,-144 41,-41 89,-74 144,-98 55,-23 115,-35 177,-35 63,0 122,12 177,35 55,24 104,57 144,98 41,41 74,89 98,144 23,55 35,114 35,177 0,63 -12,122 -35,177 -23,52 -53,98 -91,138 1,19 10,79 68,98l51 17 -47 25c-4,2 -34,17 -83,17zm-148 -100l0 0 10 7c47,32 93,48 138,48 5,0 9,-1 13,-1 -42,-41 -51,-102 -47,-124l1 -8 5 -5c37,-37 66,-81 88,-130 21,-49 31,-103 31,-159 0,-57 -10,-110 -31,-159 -22,-49 -51,-93 -88,-130 -37,-37 -80,-66 -130,-88 -49,-21 -103,-31 -159,-31 -56,0 -110,10 -159,31 -49,22 -93,51 -130,88 -37,37 -66,81 -87,130 -22,49 -32,103 -32,159 0,56 10,110 32,159 21,49 50,93 87,130 37,37 81,66 130,87 49,21 103,32 159,32 56,0 109,-10 157,-31l12 -5z"/>
  <path class="fil0" d="M1902 459c0,36 -6,70 -20,102 -13,31 -32,59 -56,83 -23,23 -51,42 -83,55 -31,14 -65,21 -101,21 -36,0 -70,-7 -101,-21 -32,-13 -59,-32 -83,-55 -24,-24 -42,-52 -56,-83 -14,-32 -20,-66 -20,-102 0,-36 6,-70 20,-101 14,-32 32,-59 56,-83 24,-24 51,-42 83,-56 31,-13 65,-20 101,-20 36,0 70,7 101,20 32,14 60,32 83,56 24,24 43,51 56,83 14,31 20,65 20,101z"/>
  <path class="fil0" d="M1642 731c-37,0 -73,-7 -106,-21 -33,-14 -62,-34 -86,-58 -25,-25 -44,-54 -58,-87 -14,-33 -22,-68 -22,-106 0,-37 8,-73 22,-106 14,-32 33,-61 58,-86 24,-24 53,-44 86,-58 66,-28 146,-28 212,0 33,14 62,33 86,58 25,25 45,54 59,87 14,32 21,68 21,105 0,38 -7,73 -21,106 -14,33 -34,62 -59,87 -24,24 -53,44 -86,58 -33,14 -69,21 -106,21zm0 -521l0 0c-34,0 -67,7 -97,20 -30,13 -57,31 -79,53 -23,23 -41,49 -54,79 -12,30 -19,63 -19,97 0,35 7,67 19,97 13,30 31,57 54,80 22,22 49,40 79,53 60,26 134,26 194,0 31,-13 57,-31 79,-53 23,-23 41,-50 54,-80 13,-30 19,-62 19,-97 0,-34 -6,-67 -19,-97 -13,-29 -31,-56 -54,-79 -22,-22 -49,-40 -79,-53 -30,-13 -63,-20 -97,-20z"/>
 </g>
</svg>